<?xml version="1.0" encoding="UTF-8" standalone="no"?>
<!-- Generator: Adobe Illustrator 19.0.0, SVG Export Plug-In . SVG Version: 6.00 Build 0)  -->

<svg
   version="1.1"
   id="Capa_1"
   x="0px"
   y="0px"
   viewBox="0 0 58.365 58.365"
   style="enable-background:new 0 0 58.365 58.365;"
   xml:space="preserve"
   sodipodi:docname="homee.svg"
   inkscape:version="1.2 (dc2aedaf03, 2022-05-15)"
   xmlns:inkscape="http://www.inkscape.org/namespaces/inkscape"
   xmlns:sodipodi="http://sodipodi.sourceforge.net/DTD/sodipodi-0.dtd"
   xmlns="http://www.w3.org/2000/svg"
   xmlns:svg="http://www.w3.org/2000/svg"><defs
   id="defs37" /><sodipodi:namedview
   id="namedview35"
   pagecolor="#ffffff"
   bordercolor="#000000"
   borderopacity="0.25"
   inkscape:showpageshadow="2"
   inkscape:pageopacity="0.0"
   inkscape:pagecheckerboard="0"
   inkscape:deskcolor="#d1d1d1"
   showgrid="false"
   inkscape:zoom="14.340786"
   inkscape:cx="24.475646"
   inkscape:cy="29.217366"
   inkscape:window-width="1920"
   inkscape:window-height="1017"
   inkscape:window-x="-8"
   inkscape:window-y="-8"
   inkscape:window-maximized="1"
   inkscape:current-layer="Capa_1" />
<path
   d="M57.863,26.632l-8.681-8.061V5.365h-10v3.921L29.182,0L0.502,26.632c-0.404,0.376-0.428,1.009-0.052,1.414  c0.375,0.404,1.008,0.427,1.414,0.052l3.319-3.082v33.349h16h16h16V25.015l3.319,3.082c0.192,0.179,0.437,0.267,0.681,0.267  c0.269,0,0.536-0.107,0.732-0.319C58.291,27.641,58.267,27.008,57.863,26.632z M41.182,7.365h6v9.349l-6-5.571V7.365z   M23.182,56.365V35.302c0-0.517,0.42-0.937,0.937-0.937h10.126c0.517,0,0.937,0.42,0.937,0.937v21.063H23.182z M51.182,56.365h-14  V35.302c0-1.62-1.317-2.937-2.937-2.937H24.119c-1.62,0-2.937,1.317-2.937,2.937v21.063h-14V23.158l22-20.429l14.28,13.26  l5.72,5.311v0l2,1.857V56.365z"
   id="path2"
   style="fill:#ffffff" />
<g
   id="g4">
</g>
<g
   id="g6">
</g>
<g
   id="g8">
</g>
<g
   id="g10">
</g>
<g
   id="g12">
</g>
<g
   id="g14">
</g>
<g
   id="g16">
</g>
<g
   id="g18">
</g>
<g
   id="g20">
</g>
<g
   id="g22">
</g>
<g
   id="g24">
</g>
<g
   id="g26">
</g>
<g
   id="g28">
</g>
<g
   id="g30">
</g>
<g
   id="g32">
</g>
</svg>
